<svg width="30" height="30" viewBox="0 0 30 30" fill="none" xmlns="http://www.w3.org/2000/svg">
<rect width="30" height="30" rx="5" fill="#15101C"/>
<path d="M22.5625 8.125H7.4375C7.25516 8.125 7.0803 8.19743 6.95136 8.32636C6.82243 8.4553 6.75 8.63016 6.75 8.8125C6.75 8.99484 6.82243 9.1697 6.95136 9.29864C7.0803 9.42757 7.25516 9.5 7.4375 9.5H8.125V21.875C8.125 22.2397 8.26987 22.5894 8.52773 22.8473C8.78559 23.1051 9.13533 23.25 9.5 23.25H20.5C20.8647 23.25 21.2144 23.1051 21.4723 22.8473C21.7301 22.5894 21.875 22.2397 21.875 21.875V9.5H22.5625C22.7448 9.5 22.9197 9.42757 23.0486 9.29864C23.1776 9.1697 23.25 8.99484 23.25 8.8125C23.25 8.63016 23.1776 8.4553 23.0486 8.32636C22.9197 8.19743 22.7448 8.125 22.5625 8.125ZM20.5 21.875H9.5V9.5H20.5V21.875ZM10.875 6.0625C10.875 5.88016 10.9474 5.7053 11.0764 5.57636C11.2053 5.44743 11.3802 5.375 11.5625 5.375H18.4375C18.6198 5.375 18.7947 5.44743 18.9236 5.57636C19.0526 5.7053 19.125 5.88016 19.125 6.0625C19.125 6.24484 19.0526 6.4197 18.9236 6.54864C18.7947 6.67757 18.6198 6.75 18.4375 6.75H11.5625C11.3802 6.75 11.2053 6.67757 11.0764 6.54864C10.9474 6.4197 10.875 6.24484 10.875 6.0625Z" fill="#9E78CF"/>
</svg>
