<svg width="30" height="30" viewBox="0 0 30 30" fill="none" xmlns="http://www.w3.org/2000/svg">
<rect width="30" height="30" rx="5" fill="#15101C"/>
<path d="M23.7364 10.6739L12.7364 21.6739C12.6726 21.7378 12.5967 21.7885 12.5133 21.8231C12.4298 21.8577 12.3403 21.8755 12.25 21.8755C12.1597 21.8755 12.0702 21.8577 11.9867 21.8231C11.9033 21.7885 11.8274 21.7378 11.7636 21.6739L6.95109 16.8614C6.82209 16.7324 6.74962 16.5574 6.74962 16.375C6.74962 16.1926 6.82209 16.0176 6.95109 15.8886C7.0801 15.7596 7.25506 15.6871 7.4375 15.6871C7.61994 15.6871 7.7949 15.7596 7.92391 15.8886L12.25 20.2155L22.7636 9.70109C22.8926 9.57209 23.0676 9.49962 23.25 9.49962C23.4324 9.49962 23.6074 9.57209 23.7364 9.70109C23.8654 9.8301 23.9379 10.0051 23.9379 10.1875C23.9379 10.3699 23.8654 10.5449 23.7364 10.6739Z" fill="#9E78CF"/>
</svg>
